<svg xmlns="http://www.w3.org/2000/svg" xmlns:html="http://www.w3.org/1999/xhtml" xmlns:xlink="http://www.w3.org/1999/xlink" viewBox="-10 -10 280 220"><html:link href="paint-order-text-decorations-ref.svg" rel="match"/><defs><marker id="m" overflow="visible" refX="5" refY="5" viewBox="0 0 10 10"><circle cx="5" cy="5" r="3" fill="#000" fill-opacity=".5" stroke="#000"/></marker><svg id="poly" viewBox="-10 -10 420 420"><text y="300" fill="#00f" stroke="#0f0" stroke-opacity=".5" stroke-width="10" font-family="sans-serif" font-size="200" style="marker:url(#m);text-decoration:underline">test</text></svg></defs><use width="50" height="50" xlink:href="#poly"/><use style="paint-order:normal" width="50" height="50" x="50" xlink:href="#poly"/><g transform="translate(0,50)"><use style="paint-order:fill" width="50" height="50" x="0" xlink:href="#poly"/><use style="paint-order:fill stroke" width="50" height="50" x="50" xlink:href="#poly"/><use style="paint-order:fill stroke markers" width="50" height="50" x="100" xlink:href="#poly"/><use style="paint-order:fill markers" width="50" height="50" x="150" xlink:href="#poly"/><use style="paint-order:fill markers stroke" width="50" height="50" x="200" xlink:href="#poly"/></g><g transform="translate(0,100)"><use style="paint-order:stroke" width="50" height="50" x="0" xlink:href="#poly"/><use style="paint-order:stroke fill" width="50" height="50" x="50" xlink:href="#poly"/><use style="paint-order:stroke fill markers" width="50" height="50" x="100" xlink:href="#poly"/><use style="paint-order:stroke markers" width="50" height="50" x="150" xlink:href="#poly"/><use style="paint-order:stroke markers fill" width="50" height="50" x="200" xlink:href="#poly"/></g><g transform="translate(0,150)"><use style="paint-order:markers" width="50" height="50" x="0" xlink:href="#poly"/><use style="paint-order:markers stroke" width="50" height="50" x="50" xlink:href="#poly"/><use style="paint-order:markers stroke fill" width="50" height="50" x="100" xlink:href="#poly"/><use style="paint-order:markers fill" width="50" height="50" x="150" xlink:href="#poly"/><use style="paint-order:markers fill stroke" width="50" height="50" x="200" xlink:href="#poly"/></g></svg>