<svg xmlns="http://www.w3.org/2000/svg" xmlns:xlink="http://www.w3.org/1999/xlink" viewBox="-10 -10 280 220"><defs><marker id="m" overflow="visible" refX="5" refY="5" viewBox="0 0 10 10"><circle cx="5" cy="5" r="3" fill="#000" fill-opacity=".5" stroke="#000"/></marker><svg id="poly" viewBox="-10 -10 420 420"><polygon fill="#00f" stroke="#0f0" stroke-opacity=".5" stroke-width="50" points="50 50 50 350 350 350 250 200" style="marker:url(#m)"/></svg><svg id="poly-f-m-s" viewBox="-10 -10 420 420"><polygon fill="#00f" stroke-opacity=".5" stroke-width="50" points="50 50 50 350 350 350 250 200" style="marker:url(#m)"/><polygon fill="none" stroke="#0f0" stroke-opacity=".5" stroke-width="50" points="50 50 50 350 350 350 250 200"/></svg><svg id="poly-m-f-s" viewBox="-10 -10 420 420"><polygon fill="none" stroke-opacity=".5" stroke-width="50" points="50 50 50 350 350 350 250 200" style="marker:url(#m)"/><polygon fill="#00f" stroke-opacity=".5" stroke-width="50" points="50 50 50 350 350 350 250 200"/><polygon fill="none" stroke="#0f0" stroke-opacity=".5" stroke-width="50" points="50 50 50 350 350 350 250 200"/></svg><svg id="poly-s-m-f" viewBox="-10 -10 420 420"><polygon fill="none" stroke="#0f0" stroke-opacity=".5" stroke-width="50" points="50 50 50 350 350 350 250 200"/><polygon fill="none" stroke-opacity=".5" stroke-width="50" points="50 50 50 350 350 350 250 200" style="marker:url(#m)"/><polygon fill="#00f" stroke-opacity=".5" stroke-width="50" points="50 50 50 350 350 350 250 200"/></svg><svg id="poly-s-f-m" viewBox="-10 -10 420 420"><polygon fill="none" stroke="#0f0" stroke-opacity=".5" stroke-width="50" points="50 50 50 350 350 350 250 200"/><polygon fill="#00f" stroke-opacity=".5" stroke-width="50" points="50 50 50 350 350 350 250 200"/><polygon fill="none" stroke-opacity=".5" stroke-width="50" points="50 50 50 350 350 350 250 200" style="marker:url(#m)"/></svg><svg id="poly-m-s-f" viewBox="-10 -10 420 420"><polygon fill="none" stroke-opacity=".5" stroke-width="50" points="50 50 50 350 350 350 250 200" style="marker:url(#m)"/><polygon fill="none" stroke="#0f0" stroke-opacity=".5" stroke-width="50" points="50 50 50 350 350 350 250 200"/><polygon fill="#00f" stroke-opacity=".5" stroke-width="50" points="50 50 50 350 350 350 250 200"/></svg></defs><use width="50" height="50" xlink:href="#poly"/><use width="50" height="50" x="50" xlink:href="#poly"/><g transform="translate(0,50)"><use width="50" height="50" x="0" xlink:href="#poly"/><use width="50" height="50" x="50" xlink:href="#poly"/><use width="50" height="50" x="100" xlink:href="#poly"/><use width="50" height="50" x="150" xlink:href="#poly-f-m-s"/><use width="50" height="50" x="200" xlink:href="#poly-f-m-s"/></g><g transform="translate(0,100)"><use width="50" height="50" x="0" xlink:href="#poly-s-f-m"/><use width="50" height="50" x="50" xlink:href="#poly-s-f-m"/><use width="50" height="50" x="100" xlink:href="#poly-s-f-m"/><use width="50" height="50" x="150" xlink:href="#poly-s-m-f"/><use width="50" height="50" x="200" xlink:href="#poly-s-m-f"/></g><g transform="translate(0,150)"><use width="50" height="50" x="0" xlink:href="#poly-m-f-s"/><use width="50" height="50" x="50" xlink:href="#poly-m-s-f"/><use width="50" height="50" x="100" xlink:href="#poly-m-s-f"/><use width="50" height="50" x="150" xlink:href="#poly-m-f-s"/><use width="50" height="50" x="200" xlink:href="#poly-m-f-s"/></g></svg>